<svg width="236" height="45" viewBox="0 0 236 45" fill="none" xmlns="http://www.w3.org/2000/svg">
<path d="M125.52 38.45C124.06 38.45 122.73 38.21 121.53 37.73C120.33 37.25 119.3 36.55 118.44 35.63C117.58 34.71 116.91 33.58 116.43 32.24C115.97 30.88 115.74 29.33 115.74 27.59C115.74 25.85 116 24.31 116.52 22.97C117.06 21.61 117.78 20.47 118.68 19.55C119.58 18.63 120.63 17.93 121.83 17.45C123.03 16.97 124.31 16.73 125.67 16.73C126.53 16.73 127.3 16.79 127.98 16.91C128.68 17.03 129.28 17.17 129.78 17.33C130.3 17.49 130.72 17.65 131.04 17.81C131.36 17.97 131.58 18.09 131.7 18.17L130.86 20.57C130.68 20.45 130.42 20.32 130.08 20.18C129.74 20.04 129.35 19.9 128.91 19.76C128.49 19.62 128.02 19.51 127.5 19.43C127 19.33 126.49 19.28 125.97 19.28C124.87 19.28 123.88 19.47 123 19.85C122.12 20.23 121.37 20.78 120.75 21.5C120.13 22.22 119.65 23.1 119.31 24.14C118.99 25.16 118.83 26.31 118.83 27.59C118.83 28.83 118.97 29.96 119.25 30.98C119.55 32 119.99 32.88 120.57 33.62C121.15 34.34 121.87 34.9 122.73 35.3C123.61 35.7 124.63 35.9 125.79 35.9C127.13 35.9 128.24 35.76 129.12 35.48C130 35.2 130.66 34.95 131.1 34.73L131.85 37.13C131.71 37.23 131.46 37.36 131.1 37.52C130.74 37.66 130.29 37.8 129.75 37.94C129.21 38.08 128.58 38.2 127.86 38.3C127.14 38.4 126.36 38.45 125.52 38.45ZM140.284 35.99C140.944 35.99 141.524 35.98 142.024 35.96C142.544 35.92 142.974 35.86 143.314 35.78V31.13C143.114 31.03 142.784 30.95 142.324 30.89C141.884 30.81 141.344 30.77 140.704 30.77C140.284 30.77 139.834 30.8 139.354 30.86C138.894 30.92 138.464 31.05 138.064 31.25C137.684 31.43 137.364 31.69 137.104 32.03C136.844 32.35 136.714 32.78 136.714 33.32C136.714 34.32 137.034 35.02 137.674 35.42C138.314 35.8 139.184 35.99 140.284 35.99ZM140.044 22.01C141.164 22.01 142.104 22.16 142.864 22.46C143.644 22.74 144.264 23.15 144.724 23.69C145.204 24.21 145.544 24.84 145.744 25.58C145.944 26.3 146.044 27.1 146.044 27.98V37.73C145.804 37.77 145.464 37.83 145.024 37.91C144.604 37.97 144.124 38.03 143.584 38.09C143.044 38.15 142.454 38.2 141.814 38.24C141.194 38.3 140.574 38.33 139.954 38.33C139.074 38.33 138.264 38.24 137.524 38.06C136.784 37.88 136.144 37.6 135.604 37.22C135.064 36.82 134.644 36.3 134.344 35.66C134.044 35.02 133.894 34.25 133.894 33.35C133.894 32.49 134.064 31.75 134.404 31.13C134.764 30.51 135.244 30.01 135.844 29.63C136.444 29.25 137.144 28.97 137.944 28.79C138.744 28.61 139.584 28.52 140.464 28.52C140.744 28.52 141.034 28.54 141.334 28.58C141.634 28.6 141.914 28.64 142.174 28.7C142.454 28.74 142.694 28.78 142.894 28.82C143.094 28.86 143.234 28.89 143.314 28.91V28.13C143.314 27.67 143.264 27.22 143.164 26.78C143.064 26.32 142.884 25.92 142.624 25.58C142.364 25.22 142.004 24.94 141.544 24.74C141.104 24.52 140.524 24.41 139.804 24.41C138.884 24.41 138.074 24.48 137.374 24.62C136.694 24.74 136.184 24.87 135.844 25.01L135.514 22.7C135.874 22.54 136.474 22.39 137.314 22.25C138.154 22.09 139.064 22.01 140.044 22.01ZM155.357 38.3C153.637 38.26 152.417 37.89 151.697 37.19C150.977 36.49 150.617 35.4 150.617 33.92V15.2L153.407 14.72V33.47C153.407 33.93 153.447 34.31 153.527 34.61C153.607 34.91 153.737 35.15 153.917 35.33C154.097 35.51 154.337 35.65 154.637 35.75C154.937 35.83 155.307 35.9 155.747 35.96L155.357 38.3ZM158.01 30.23C158.01 28.85 158.21 27.65 158.61 26.63C159.01 25.59 159.54 24.73 160.2 24.05C160.86 23.37 161.62 22.86 162.48 22.52C163.34 22.18 164.22 22.01 165.12 22.01C167.22 22.01 168.83 22.67 169.95 23.99C171.07 25.29 171.63 27.28 171.63 29.96C171.63 30.08 171.63 30.24 171.63 30.44C171.63 30.62 171.62 30.79 171.6 30.95H160.92C161.04 32.57 161.51 33.8 162.33 34.64C163.15 35.48 164.43 35.9 166.17 35.9C167.15 35.9 167.97 35.82 168.63 35.66C169.31 35.48 169.82 35.31 170.16 35.15L170.55 37.49C170.21 37.67 169.61 37.86 168.75 38.06C167.91 38.26 166.95 38.36 165.87 38.36C164.51 38.36 163.33 38.16 162.33 37.76C161.35 37.34 160.54 36.77 159.9 36.05C159.26 35.33 158.78 34.48 158.46 33.5C158.16 32.5 158.01 31.41 158.01 30.23ZM168.72 28.7C168.74 27.44 168.42 26.41 167.76 25.61C167.12 24.79 166.23 24.38 165.09 24.38C164.45 24.38 163.88 24.51 163.38 24.77C162.9 25.01 162.49 25.33 162.15 25.73C161.81 26.13 161.54 26.59 161.34 27.11C161.16 27.63 161.04 28.16 160.98 28.7H168.72ZM175.638 22.85C176.278 22.69 177.128 22.52 178.188 22.34C179.248 22.16 180.468 22.07 181.848 22.07C183.088 22.07 184.118 22.25 184.938 22.61C185.758 22.95 186.408 23.44 186.888 24.08C187.388 24.7 187.738 25.45 187.938 26.33C188.138 27.21 188.238 28.18 188.238 29.24V38H185.448V29.84C185.448 28.88 185.378 28.06 185.238 27.38C185.118 26.7 184.908 26.15 184.608 25.73C184.308 25.31 183.908 25.01 183.408 24.83C182.908 24.63 182.288 24.53 181.548 24.53C181.248 24.53 180.938 24.54 180.618 24.56C180.298 24.58 179.988 24.61 179.688 24.65C179.408 24.67 179.148 24.7 178.908 24.74C178.688 24.78 178.528 24.81 178.428 24.83V38H175.638V22.85ZM202.945 25.7C202.605 25.42 202.115 25.15 201.475 24.89C200.835 24.63 200.135 24.5 199.375 24.5C198.575 24.5 197.885 24.65 197.305 24.95C196.745 25.23 196.285 25.63 195.925 26.15C195.565 26.65 195.305 27.25 195.145 27.95C194.985 28.65 194.905 29.4 194.905 30.2C194.905 32.02 195.355 33.43 196.255 34.43C197.155 35.41 198.355 35.9 199.855 35.9C200.615 35.9 201.245 35.87 201.745 35.81C202.265 35.73 202.665 35.65 202.945 35.57V25.7ZM202.945 15.2L205.735 14.72V37.55C205.095 37.73 204.275 37.91 203.275 38.09C202.275 38.27 201.125 38.36 199.825 38.36C198.625 38.36 197.545 38.17 196.585 37.79C195.625 37.41 194.805 36.87 194.125 36.17C193.445 35.47 192.915 34.62 192.535 33.62C192.175 32.6 191.995 31.46 191.995 30.2C191.995 29 192.145 27.9 192.445 26.9C192.765 25.9 193.225 25.04 193.825 24.32C194.425 23.6 195.155 23.04 196.015 22.64C196.895 22.24 197.895 22.04 199.015 22.04C199.915 22.04 200.705 22.16 201.385 22.4C202.085 22.64 202.605 22.87 202.945 23.09V15.2ZM215.811 35.99C216.471 35.99 217.051 35.98 217.551 35.96C218.071 35.92 218.501 35.86 218.841 35.78V31.13C218.641 31.03 218.311 30.95 217.851 30.89C217.411 30.81 216.871 30.77 216.231 30.77C215.811 30.77 215.361 30.8 214.881 30.86C214.421 30.92 213.991 31.05 213.591 31.25C213.211 31.43 212.891 31.69 212.631 32.03C212.371 32.35 212.241 32.78 212.241 33.32C212.241 34.32 212.561 35.02 213.201 35.42C213.841 35.8 214.711 35.99 215.811 35.99ZM215.571 22.01C216.691 22.01 217.631 22.16 218.391 22.46C219.171 22.74 219.791 23.15 220.251 23.69C220.731 24.21 221.071 24.84 221.271 25.58C221.471 26.3 221.571 27.1 221.571 27.98V37.73C221.331 37.77 220.991 37.83 220.551 37.91C220.131 37.97 219.651 38.03 219.111 38.09C218.571 38.15 217.981 38.2 217.341 38.24C216.721 38.3 216.101 38.33 215.481 38.33C214.601 38.33 213.791 38.24 213.051 38.06C212.311 37.88 211.671 37.6 211.131 37.22C210.591 36.82 210.171 36.3 209.871 35.66C209.571 35.02 209.421 34.25 209.421 33.35C209.421 32.49 209.591 31.75 209.931 31.13C210.291 30.51 210.771 30.01 211.371 29.63C211.971 29.25 212.671 28.97 213.471 28.79C214.271 28.61 215.111 28.52 215.991 28.52C216.271 28.52 216.561 28.54 216.861 28.58C217.161 28.6 217.441 28.64 217.701 28.7C217.981 28.74 218.221 28.78 218.421 28.82C218.621 28.86 218.761 28.89 218.841 28.91V28.13C218.841 27.67 218.791 27.22 218.691 26.78C218.591 26.32 218.411 25.92 218.151 25.58C217.891 25.22 217.531 24.94 217.071 24.74C216.631 24.52 216.051 24.41 215.331 24.41C214.411 24.41 213.601 24.48 212.901 24.62C212.221 24.74 211.711 24.87 211.371 25.01L211.041 22.7C211.401 22.54 212.001 22.39 212.841 22.25C213.681 22.09 214.591 22.01 215.571 22.01ZM231.965 22.07C232.205 22.07 232.475 22.09 232.775 22.13C233.095 22.15 233.405 22.19 233.705 22.25C234.005 22.29 234.275 22.34 234.515 22.4C234.775 22.44 234.965 22.48 235.085 22.52L234.605 24.95C234.385 24.87 234.015 24.78 233.495 24.68C232.995 24.56 232.345 24.5 231.545 24.5C231.025 24.5 230.505 24.56 229.985 24.68C229.485 24.78 229.155 24.85 228.995 24.89V38H226.205V23.06C226.865 22.82 227.685 22.6 228.665 22.4C229.645 22.18 230.745 22.07 231.965 22.07Z" fill="#333333"/>
<path d="M50.4 37V16.21H64.44V20.14H55.08V24.22H63.39V28.06H55.08V33.07H65.13V37H50.4ZM73.9718 33.88C74.4118 33.88 74.8318 33.87 75.2318 33.85C75.6318 33.83 75.9518 33.8 76.1918 33.76V30.37C76.0118 30.33 75.7418 30.29 75.3818 30.25C75.0218 30.21 74.6918 30.19 74.3918 30.19C73.9718 30.19 73.5718 30.22 73.1918 30.28C72.8318 30.32 72.5118 30.41 72.2318 30.55C71.9518 30.69 71.7318 30.88 71.5718 31.12C71.4118 31.36 71.3318 31.66 71.3318 32.02C71.3318 32.72 71.5618 33.21 72.0218 33.49C72.5018 33.75 73.1518 33.88 73.9718 33.88ZM73.6118 20.8C74.9318 20.8 76.0318 20.95 76.9118 21.25C77.7918 21.55 78.4918 21.98 79.0118 22.54C79.5518 23.1 79.9318 23.78 80.1518 24.58C80.3718 25.38 80.4818 26.27 80.4818 27.25V36.55C79.8418 36.69 78.9518 36.85 77.8118 37.03C76.6718 37.23 75.2918 37.33 73.6718 37.33C72.6518 37.33 71.7218 37.24 70.8818 37.06C70.0618 36.88 69.3518 36.59 68.7518 36.19C68.1518 35.77 67.6918 35.23 67.3718 34.57C67.0518 33.91 66.8918 33.1 66.8918 32.14C66.8918 31.22 67.0718 30.44 67.4318 29.8C67.8118 29.16 68.3118 28.65 68.9318 28.27C69.5518 27.89 70.2618 27.62 71.0618 27.46C71.8618 27.28 72.6918 27.19 73.5518 27.19C74.1318 27.19 74.6418 27.22 75.0818 27.28C75.5418 27.32 75.9118 27.38 76.1918 27.46V27.04C76.1918 26.28 75.9618 25.67 75.5018 25.21C75.0418 24.75 74.2418 24.52 73.1018 24.52C72.3418 24.52 71.5918 24.58 70.8518 24.7C70.1118 24.8 69.4718 24.95 68.9318 25.15L68.3618 21.55C68.6218 21.47 68.9418 21.39 69.3218 21.31C69.7218 21.21 70.1518 21.13 70.6118 21.07C71.0718 20.99 71.5518 20.93 72.0518 20.89C72.5718 20.83 73.0918 20.8 73.6118 20.8ZM89.0538 33.79C89.8738 33.79 90.4538 33.71 90.7938 33.55C91.1338 33.39 91.3038 33.08 91.3038 32.62C91.3038 32.26 91.0838 31.95 90.6438 31.69C90.2038 31.41 89.5338 31.1 88.6338 30.76C87.9338 30.5 87.2938 30.23 86.7138 29.95C86.1538 29.67 85.6738 29.34 85.2738 28.96C84.8738 28.56 84.5638 28.09 84.3438 27.55C84.1238 27.01 84.0138 26.36 84.0138 25.6C84.0138 24.12 84.5638 22.95 85.6638 22.09C86.7638 21.23 88.2738 20.8 90.1938 20.8C91.1538 20.8 92.0738 20.89 92.9538 21.07C93.8338 21.23 94.5338 21.41 95.0538 21.61L94.2738 25.09C93.7538 24.91 93.1838 24.75 92.5638 24.61C91.9638 24.47 91.2838 24.4 90.5238 24.4C89.1238 24.4 88.4238 24.79 88.4238 25.57C88.4238 25.75 88.4538 25.91 88.5138 26.05C88.5738 26.19 88.6938 26.33 88.8738 26.47C89.0538 26.59 89.2938 26.73 89.5938 26.89C89.9138 27.03 90.3138 27.19 90.7938 27.37C91.7738 27.73 92.5838 28.09 93.2238 28.45C93.8638 28.79 94.3638 29.17 94.7238 29.59C95.1038 29.99 95.3638 30.44 95.5038 30.94C95.6638 31.44 95.7438 32.02 95.7438 32.68C95.7438 34.24 95.1538 35.42 93.9738 36.22C92.8138 37.02 91.1638 37.42 89.0238 37.42C87.6238 37.42 86.4538 37.3 85.5138 37.06C84.5938 36.82 83.9538 36.62 83.5938 36.46L84.3438 32.83C85.1038 33.13 85.8838 33.37 86.6838 33.55C87.4838 33.71 88.2738 33.79 89.0538 33.79ZM113.094 21.22C112.194 24.26 111.254 27.11 110.274 29.77C109.294 32.43 108.224 35.01 107.064 37.51C106.644 38.41 106.224 39.17 105.804 39.79C105.384 40.43 104.924 40.95 104.424 41.35C103.924 41.77 103.354 42.07 102.714 42.25C102.094 42.45 101.364 42.55 100.524 42.55C99.8244 42.55 99.1744 42.48 98.5744 42.34C97.9944 42.22 97.5144 42.08 97.1344 41.92L97.9144 38.35C98.3744 38.51 98.7844 38.62 99.1444 38.68C99.5044 38.74 99.8844 38.77 100.284 38.77C101.084 38.77 101.694 38.55 102.114 38.11C102.554 37.69 102.924 37.1 103.224 36.34C102.204 34.34 101.184 32.1 100.164 29.62C99.1444 27.12 98.1844 24.32 97.2844 21.22H102.024C102.224 22 102.454 22.85 102.714 23.77C102.994 24.67 103.284 25.59 103.584 26.53C103.884 27.45 104.184 28.35 104.484 29.23C104.804 30.11 105.104 30.91 105.384 31.63C105.644 30.91 105.914 30.11 106.194 29.23C106.474 28.35 106.744 27.45 107.004 26.53C107.284 25.59 107.544 24.67 107.784 23.77C108.044 22.85 108.274 22 108.474 21.22H113.094Z" fill="#333333"/>
<path d="M53.25 6.1C53.3567 6.23333 53.49 6.41 53.65 6.63C53.8167 6.84333 53.9867 7.08333 54.16 7.35C54.3333 7.61 54.5033 7.88333 54.67 8.17C54.8433 8.45667 54.99 8.73333 55.11 9H54.05C53.9167 8.74667 53.77 8.49 53.61 8.23C53.4567 7.97 53.3 7.72333 53.14 7.49C52.98 7.25 52.82 7.02667 52.66 6.82C52.5067 6.61333 52.3667 6.43333 52.24 6.28C52.1533 6.28667 52.0633 6.29 51.97 6.29C51.8833 6.29 51.7933 6.29 51.7 6.29H50.83V9H49.86V2.17C50.1333 2.10333 50.4367 2.06 50.77 2.04C51.11 2.01333 51.42 2 51.7 2C52.6733 2 53.4133 2.18333 53.92 2.55C54.4333 2.91667 54.69 3.46333 54.69 4.19C54.69 4.65 54.5667 5.04333 54.32 5.37C54.08 5.69667 53.7233 5.94 53.25 6.1ZM51.78 2.85C51.3667 2.85 51.05 2.86 50.83 2.88V5.49H51.52C51.8533 5.49 52.1533 5.47333 52.42 5.44C52.6867 5.40667 52.91 5.34333 53.09 5.25C53.2767 5.15667 53.42 5.02667 53.52 4.86C53.62 4.68667 53.67 4.46 53.67 4.18C53.67 3.92 53.62 3.70333 53.52 3.53C53.42 3.35667 53.2833 3.22 53.11 3.12C52.9433 3.02 52.7433 2.95 52.51 2.91C52.2833 2.87 52.04 2.85 51.78 2.85ZM55.8991 6.41C55.8991 5.95 55.9657 5.55 56.0991 5.21C56.2324 4.86333 56.4091 4.57667 56.6291 4.35C56.8491 4.12333 57.1024 3.95333 57.3891 3.84C57.6757 3.72667 57.9691 3.67 58.2691 3.67C58.9691 3.67 59.5057 3.89 59.8791 4.33C60.2524 4.76333 60.4391 5.42667 60.4391 6.32C60.4391 6.36 60.4391 6.41333 60.4391 6.48C60.4391 6.54 60.4357 6.59667 60.4291 6.65H56.8691C56.9091 7.19 57.0657 7.6 57.3391 7.88C57.6124 8.16 58.0391 8.3 58.6191 8.3C58.9457 8.3 59.2191 8.27333 59.4391 8.22C59.6657 8.16 59.8357 8.10333 59.9491 8.05L60.0791 8.83C59.9657 8.89 59.7657 8.95333 59.4791 9.02C59.1991 9.08667 58.8791 9.12 58.5191 9.12C58.0657 9.12 57.6724 9.05333 57.3391 8.92C57.0124 8.78 56.7424 8.59 56.5291 8.35C56.3157 8.11 56.1557 7.82667 56.0491 7.5C55.9491 7.16667 55.8991 6.80333 55.8991 6.41ZM59.4691 5.9C59.4757 5.48 59.3691 5.13667 59.1491 4.87C58.9357 4.59667 58.6391 4.46 58.2591 4.46C58.0457 4.46 57.8557 4.50333 57.6891 4.59C57.5291 4.67 57.3924 4.77667 57.2791 4.91C57.1657 5.04333 57.0757 5.19667 57.0091 5.37C56.9491 5.54333 56.9091 5.72 56.8891 5.9H59.4691ZM63.635 8.33C63.855 8.33 64.0483 8.32667 64.215 8.32C64.3883 8.30667 64.5317 8.28667 64.645 8.26V6.71C64.5783 6.67667 64.4683 6.65 64.315 6.63C64.1683 6.60333 63.9883 6.59 63.775 6.59C63.635 6.59 63.485 6.6 63.325 6.62C63.1717 6.64 63.0283 6.68333 62.895 6.75C62.7683 6.81 62.6617 6.89667 62.575 7.01C62.4883 7.11667 62.445 7.26 62.445 7.44C62.445 7.77333 62.5517 8.00667 62.765 8.14C62.9783 8.26667 63.2683 8.33 63.635 8.33ZM63.555 3.67C63.9283 3.67 64.2417 3.72 64.495 3.82C64.755 3.91333 64.9617 4.05 65.115 4.23C65.275 4.40333 65.3883 4.61333 65.455 4.86C65.5217 5.1 65.555 5.36667 65.555 5.66V8.91C65.475 8.92333 65.3617 8.94333 65.215 8.97C65.075 8.99 64.915 9.01 64.735 9.03C64.555 9.05 64.3583 9.06667 64.145 9.08C63.9383 9.1 63.7317 9.11 63.525 9.11C63.2317 9.11 62.9617 9.08 62.715 9.02C62.4683 8.96 62.255 8.86667 62.075 8.74C61.895 8.60667 61.755 8.43333 61.655 8.22C61.555 8.00667 61.505 7.75 61.505 7.45C61.505 7.16333 61.5617 6.91667 61.675 6.71C61.795 6.50333 61.955 6.33667 62.155 6.21C62.355 6.08333 62.5883 5.99 62.855 5.93C63.1217 5.87 63.4017 5.84 63.695 5.84C63.7883 5.84 63.885 5.84667 63.985 5.86C64.085 5.86667 64.1783 5.88 64.265 5.9C64.3583 5.91333 64.4383 5.92667 64.505 5.94C64.5717 5.95333 64.6183 5.96333 64.645 5.97V5.71C64.645 5.55667 64.6283 5.40667 64.595 5.26C64.5617 5.10667 64.5017 4.97333 64.415 4.86C64.3283 4.74 64.2083 4.64667 64.055 4.58C63.9083 4.50667 63.715 4.47 63.475 4.47C63.1683 4.47 62.8983 4.49333 62.665 4.54C62.4383 4.58 62.2683 4.62333 62.155 4.67L62.045 3.9C62.165 3.84667 62.365 3.79667 62.645 3.75C62.925 3.69667 63.2283 3.67 63.555 3.67ZM69.4596 9.12C69.0396 9.12 68.6696 9.05333 68.3496 8.92C68.0363 8.78667 67.7696 8.6 67.5496 8.36C67.3363 8.12 67.1763 7.83667 67.0696 7.51C66.9629 7.17667 66.9096 6.81 66.9096 6.41C66.9096 6.01 66.9663 5.64333 67.0796 5.31C67.1996 4.97667 67.3663 4.69 67.5796 4.45C67.7929 4.20333 68.0529 4.01333 68.3596 3.88C68.6729 3.74 69.0196 3.67 69.3996 3.67C69.6329 3.67 69.8663 3.69 70.0996 3.73C70.3329 3.77 70.5563 3.83333 70.7696 3.92L70.5596 4.71C70.4196 4.64333 70.2563 4.59 70.0696 4.55C69.8896 4.51 69.6963 4.49 69.4896 4.49C68.9696 4.49 68.5696 4.65333 68.2896 4.98C68.0163 5.30667 67.8796 5.78333 67.8796 6.41C67.8796 6.69 67.9096 6.94667 67.9696 7.18C68.0363 7.41333 68.1363 7.61333 68.2696 7.78C68.4096 7.94667 68.5863 8.07667 68.7996 8.17C69.0129 8.25667 69.2729 8.3 69.5796 8.3C69.8263 8.3 70.0496 8.27667 70.2496 8.23C70.4496 8.18333 70.6063 8.13333 70.7196 8.08L70.8496 8.86C70.7963 8.89333 70.7196 8.92667 70.6196 8.96C70.5196 8.98667 70.4063 9.01 70.2796 9.03C70.1529 9.05667 70.0163 9.07667 69.8696 9.09C69.7296 9.11 69.5929 9.12 69.4596 9.12ZM72.818 3.8H74.788V4.58H72.818V6.98C72.818 7.24 72.838 7.45667 72.878 7.63C72.918 7.79667 72.978 7.93 73.058 8.03C73.138 8.12333 73.238 8.19 73.358 8.23C73.478 8.27 73.618 8.29 73.778 8.29C74.058 8.29 74.2814 8.26 74.448 8.2C74.6214 8.13333 74.7414 8.08667 74.808 8.06L74.988 8.83C74.8947 8.87667 74.7314 8.93333 74.498 9C74.2647 9.07333 73.998 9.11 73.698 9.11C73.3447 9.11 73.0514 9.06667 72.818 8.98C72.5914 8.88667 72.408 8.75 72.268 8.57C72.128 8.39 72.028 8.17 71.968 7.91C71.9147 7.64333 71.888 7.33667 71.888 6.99V2.35L72.818 2.19V3.8ZM83.2959 9C83.1493 8.75333 82.9793 8.47667 82.7859 8.17C82.5993 7.86333 82.3959 7.54667 82.1759 7.22C81.9559 6.88667 81.7259 6.55 81.4859 6.21C81.2526 5.87 81.0193 5.54333 80.7859 5.23C80.5526 4.91 80.3259 4.61 80.1059 4.33C79.8859 4.05 79.6826 3.80333 79.4959 3.59V9H78.5459V2.07H79.3159C79.6293 2.40333 79.9626 2.79333 80.3159 3.24C80.6759 3.68 81.0293 4.13667 81.3759 4.61C81.7293 5.07667 82.0593 5.53667 82.3659 5.99C82.6793 6.44333 82.9426 6.84667 83.1559 7.2V2.07H84.1059V9H83.2959ZM87.6213 8.33C87.8413 8.33 88.0347 8.32667 88.2013 8.32C88.3747 8.30667 88.518 8.28667 88.6313 8.26V6.71C88.5647 6.67667 88.4547 6.65 88.3013 6.63C88.1547 6.60333 87.9747 6.59 87.7613 6.59C87.6213 6.59 87.4713 6.6 87.3113 6.62C87.158 6.64 87.0147 6.68333 86.8813 6.75C86.7547 6.81 86.648 6.89667 86.5613 7.01C86.4747 7.11667 86.4313 7.26 86.4313 7.44C86.4313 7.77333 86.538 8.00667 86.7513 8.14C86.9647 8.26667 87.2547 8.33 87.6213 8.33ZM87.5413 3.67C87.9147 3.67 88.228 3.72 88.4813 3.82C88.7413 3.91333 88.948 4.05 89.1013 4.23C89.2613 4.40333 89.3747 4.61333 89.4413 4.86C89.508 5.1 89.5413 5.36667 89.5413 5.66V8.91C89.4613 8.92333 89.348 8.94333 89.2013 8.97C89.0613 8.99 88.9013 9.01 88.7213 9.03C88.5413 9.05 88.3447 9.06667 88.1313 9.08C87.9247 9.1 87.718 9.11 87.5113 9.11C87.218 9.11 86.948 9.08 86.7013 9.02C86.4547 8.96 86.2413 8.86667 86.0613 8.74C85.8813 8.60667 85.7413 8.43333 85.6413 8.22C85.5413 8.00667 85.4913 7.75 85.4913 7.45C85.4913 7.16333 85.548 6.91667 85.6613 6.71C85.7813 6.50333 85.9413 6.33667 86.1413 6.21C86.3413 6.08333 86.5747 5.99 86.8413 5.93C87.108 5.87 87.388 5.84 87.6813 5.84C87.7747 5.84 87.8713 5.84667 87.9713 5.86C88.0713 5.86667 88.1647 5.88 88.2513 5.9C88.3447 5.91333 88.4247 5.92667 88.4913 5.94C88.558 5.95333 88.6047 5.96333 88.6313 5.97V5.71C88.6313 5.55667 88.6147 5.40667 88.5813 5.26C88.548 5.10667 88.488 4.97333 88.4013 4.86C88.3147 4.74 88.1947 4.64667 88.0413 4.58C87.8947 4.50667 87.7013 4.47 87.4613 4.47C87.1547 4.47 86.8847 4.49333 86.6513 4.54C86.4247 4.58 86.2547 4.62333 86.1413 4.67L86.0313 3.9C86.1513 3.84667 86.3513 3.79667 86.6313 3.75C86.9113 3.69667 87.2147 3.67 87.5413 3.67ZM92.0559 3.8H94.0259V4.58H92.0559V6.98C92.0559 7.24 92.0759 7.45667 92.1159 7.63C92.1559 7.79667 92.2159 7.93 92.2959 8.03C92.3759 8.12333 92.4759 8.19 92.5959 8.23C92.7159 8.27 92.8559 8.29 93.0159 8.29C93.2959 8.29 93.5193 8.26 93.6859 8.2C93.8593 8.13333 93.9793 8.08667 94.0459 8.06L94.2259 8.83C94.1326 8.87667 93.9693 8.93333 93.7359 9C93.5026 9.07333 93.2359 9.11 92.9359 9.11C92.5826 9.11 92.2893 9.06667 92.0559 8.98C91.8293 8.88667 91.6459 8.75 91.5059 8.57C91.3659 8.39 91.2659 8.17 91.2059 7.91C91.1526 7.64333 91.1259 7.33667 91.1259 6.99V2.35L92.0559 2.19V3.8ZM96.2394 9H95.3094V3.8H96.2394V9ZM95.7694 2.86C95.6027 2.86 95.4594 2.80667 95.3394 2.7C95.226 2.58667 95.1694 2.43667 95.1694 2.25C95.1694 2.06333 95.226 1.91667 95.3394 1.81C95.4594 1.69667 95.6027 1.64 95.7694 1.64C95.936 1.64 96.076 1.69667 96.1894 1.81C96.3094 1.91667 96.3694 2.06333 96.3694 2.25C96.3694 2.43667 96.3094 2.58667 96.1894 2.7C96.076 2.80667 95.936 2.86 95.7694 2.86ZM101.999 3.8C101.739 4.77333 101.432 5.70667 101.079 6.6C100.732 7.49333 100.395 8.29333 100.069 9H99.2287C98.902 8.29333 98.562 7.49333 98.2087 6.6C97.862 5.70667 97.5587 4.77333 97.2987 3.8H98.2987C98.3787 4.12667 98.472 4.47667 98.5787 4.85C98.692 5.21667 98.8087 5.58333 98.9287 5.95C99.0553 6.31 99.182 6.66 99.3087 7C99.4353 7.34 99.5553 7.64333 99.6687 7.91C99.782 7.64333 99.902 7.34 100.029 7C100.155 6.66 100.279 6.31 100.399 5.95C100.525 5.58333 100.642 5.21667 100.749 4.85C100.862 4.47667 100.959 4.12667 101.039 3.8H101.999ZM102.631 6.41C102.631 5.95 102.698 5.55 102.831 5.21C102.965 4.86333 103.141 4.57667 103.361 4.35C103.581 4.12333 103.835 3.95333 104.121 3.84C104.408 3.72667 104.701 3.67 105.001 3.67C105.701 3.67 106.238 3.89 106.611 4.33C106.985 4.76333 107.171 5.42667 107.171 6.32C107.171 6.36 107.171 6.41333 107.171 6.48C107.171 6.54 107.168 6.59667 107.161 6.65H103.601C103.641 7.19 103.798 7.6 104.071 7.88C104.345 8.16 104.771 8.3 105.351 8.3C105.678 8.3 105.951 8.27333 106.171 8.22C106.398 8.16 106.568 8.10333 106.681 8.05L106.811 8.83C106.698 8.89 106.498 8.95333 106.211 9.02C105.931 9.08667 105.611 9.12 105.251 9.12C104.798 9.12 104.405 9.05333 104.071 8.92C103.745 8.78 103.475 8.59 103.261 8.35C103.048 8.11 102.888 7.82667 102.781 7.5C102.681 7.16667 102.631 6.80333 102.631 6.41ZM106.201 5.9C106.208 5.48 106.101 5.13667 105.881 4.87C105.668 4.59667 105.371 4.46 104.991 4.46C104.778 4.46 104.588 4.50333 104.421 4.59C104.261 4.67 104.125 4.77667 104.011 4.91C103.898 5.04333 103.808 5.19667 103.741 5.37C103.681 5.54333 103.641 5.72 103.621 5.9H106.201Z" fill="black"/>
<g filter="url(#filter0_d)">
<rect x="4" y="2" width="13.776" height="13.776" rx="3" fill="#333333"/>
</g>
<g filter="url(#filter1_d)">
<rect x="25.224" y="2" width="13.776" height="13.776" rx="3" fill="#333333"/>
</g>
<g filter="url(#filter2_d)">
<rect x="25.224" y="23.224" width="13.776" height="13.776" rx="3" fill="#FFC491"/>
</g>
<g filter="url(#filter3_d)">
<rect x="4" y="23.224" width="13.776" height="13.776" rx="3" fill="#333333"/>
</g>
<defs>
<filter id="filter0_d" x="0" y="2" width="21.776" height="21.776" filterUnits="userSpaceOnUse" color-interpolation-filters="sRGB">
<feFlood flood-opacity="0" result="BackgroundImageFix"/>
<feColorMatrix in="SourceAlpha" type="matrix" values="0 0 0 0 0 0 0 0 0 0 0 0 0 0 0 0 0 0 127 0"/>
<feOffset dy="4"/>
<feGaussianBlur stdDeviation="2"/>
<feColorMatrix type="matrix" values="0 0 0 0 0 0 0 0 0 0 0 0 0 0 0 0 0 0 0.05 0"/>
<feBlend mode="normal" in2="BackgroundImageFix" result="effect1_dropShadow"/>
<feBlend mode="normal" in="SourceGraphic" in2="effect1_dropShadow" result="shape"/>
</filter>
<filter id="filter1_d" x="21.224" y="2" width="21.776" height="21.776" filterUnits="userSpaceOnUse" color-interpolation-filters="sRGB">
<feFlood flood-opacity="0" result="BackgroundImageFix"/>
<feColorMatrix in="SourceAlpha" type="matrix" values="0 0 0 0 0 0 0 0 0 0 0 0 0 0 0 0 0 0 127 0"/>
<feOffset dy="4"/>
<feGaussianBlur stdDeviation="2"/>
<feColorMatrix type="matrix" values="0 0 0 0 0 0 0 0 0 0 0 0 0 0 0 0 0 0 0.05 0"/>
<feBlend mode="normal" in2="BackgroundImageFix" result="effect1_dropShadow"/>
<feBlend mode="normal" in="SourceGraphic" in2="effect1_dropShadow" result="shape"/>
</filter>
<filter id="filter2_d" x="21.224" y="23.224" width="21.776" height="21.776" filterUnits="userSpaceOnUse" color-interpolation-filters="sRGB">
<feFlood flood-opacity="0" result="BackgroundImageFix"/>
<feColorMatrix in="SourceAlpha" type="matrix" values="0 0 0 0 0 0 0 0 0 0 0 0 0 0 0 0 0 0 127 0"/>
<feOffset dy="4"/>
<feGaussianBlur stdDeviation="2"/>
<feColorMatrix type="matrix" values="0 0 0 0 0 0 0 0 0 0 0 0 0 0 0 0 0 0 0.1 0"/>
<feBlend mode="normal" in2="BackgroundImageFix" result="effect1_dropShadow"/>
<feBlend mode="normal" in="SourceGraphic" in2="effect1_dropShadow" result="shape"/>
</filter>
<filter id="filter3_d" x="0" y="23.224" width="21.776" height="21.776" filterUnits="userSpaceOnUse" color-interpolation-filters="sRGB">
<feFlood flood-opacity="0" result="BackgroundImageFix"/>
<feColorMatrix in="SourceAlpha" type="matrix" values="0 0 0 0 0 0 0 0 0 0 0 0 0 0 0 0 0 0 127 0"/>
<feOffset dy="4"/>
<feGaussianBlur stdDeviation="2"/>
<feColorMatrix type="matrix" values="0 0 0 0 0 0 0 0 0 0 0 0 0 0 0 0 0 0 0.05 0"/>
<feBlend mode="normal" in2="BackgroundImageFix" result="effect1_dropShadow"/>
<feBlend mode="normal" in="SourceGraphic" in2="effect1_dropShadow" result="shape"/>
</filter>
</defs>
</svg>
